<svg xmlns="http://www.w3.org/2000/svg" viewBox="0 0 1002 1002"><defs><style>.cls-1{fill:#0083ce;}.cls-2{fill:#fff;}</style></defs><title>due svg</title><g id="Layer_2" data-name="Layer 2"><g id="Layer_1-2" data-name="Layer 1"><rect class="cls-1" width="1002" height="1002" rx="127" ry="127"/><path class="cls-2" d="M700.75,721.47V895.13c0,14.5,0,28.39.3,37.15H686.86c-.3-2.11-.6-10.57-.6-15.4-3.32,9.06-10,17.82-26.27,17.82-24.46,0-31.41-19-31.41-48V822.34c0-27.18,10.87-44.39,33.52-44.39,15.1,0,21.14,6.95,23.86,11.78V721.47ZM643.67,886.07c0,23,5.74,34.73,19.33,34.73,18.42,0,23-18.12,23-41.68V826.87c0-16.91-1.81-35-22.35-35-13.89,0-19.93,12.08-19.93,31.41Z"/><path class="cls-2" d="M800.71,893.62c0,17.82,0,32,.3,38.66H786.82c-.3-2.42-.6-10.57-.6-16.91-4.23,14.19-13,19.33-26.58,19.33-11.17,0-29-3.62-29-38.35v-116h14.8v112c0,20.84,5.44,28.69,18.12,28.69,11.17,0,22.35-6.64,22.35-42.28V780.36h14.8Z"/><path class="cls-2" d="M840.57,858v26.58c0,17.52,3.32,36.84,20.84,36.84,16,0,19.63-12.38,19.63-29.29v-1.81h14.5v1.51c0,18.72-4.53,42.88-34.43,42.88-26.88,0-35-18.42-35-49.53V823.85c0-24.76,9.06-45.9,35.64-45.9,27.18,0,34.13,21.44,34.13,45.9V858Zm40.77-12.68V823.85c0-14.19-1.51-32.92-19.93-32.92-17.52,0-20.84,15.4-20.84,33.22v21.14Z"/><path class="cls-2" d="M916.36,932.27V892.71h14.8v39.56Z"/></g></g></svg>